<svg width="1440" height="1103" viewBox="0 0 1440 1103" fill="none" xmlns="http://www.w3.org/2000/svg">
<path d="M662.5 337.5C318.1 155.1 -87.3334 413.5 -247 565.5C-328 719 -494.4 1034.8 -512 1070C-529.6 1105.2 -301 1335 -184.5 1445.5H1251.5C1266.3 1445.5 1746 1322.83 1984 1261.5L1962 565.5C1908 522.667 1741.8 462.7 1509 565.5C1218 694 1093 565.5 662.5 337.5Z" fill="#0071CE" stroke="#0071CE"/>
<path d="M852.779 343.247C477.393 238.528 136.427 577.481 12.868 760.048C-33.5161 927.296 -128.705 1271.33 -138.39 1309.47C-148.074 1347.62 124.292 1523.35 261.686 1606.45L1664.62 1300.06C1679.08 1296.91 2121.56 1074.72 2340.99 964.014L2171 288.735C2109.11 258.409 1933.94 235.284 1728.43 385.387C1471.55 573.016 1322.01 474.145 852.779 343.247Z" fill="#0071CE" fill-opacity="0.2"/>
<path d="M275.461 237.735C-68.9393 55.3355 -474.373 313.736 -634.039 465.736C-715.039 619.235 -881.439 935.035 -899.039 970.235C-916.639 1005.44 -688.039 1235.24 -571.539 1345.74H864.461C879.261 1345.74 1358.96 1223.07 1596.96 1161.74L1574.96 465.736C1520.96 422.902 1354.76 362.935 1121.96 465.736C830.961 594.236 705.961 465.735 275.461 237.735Z" fill="#0071CE" fill-opacity="0.5" stroke="#0071CE"/>
</svg>
